<svg width="94" height="32" viewBox="0 0 94 32" fill="none" xmlns="http://www.w3.org/2000/svg">
<path d="M11.236 31.266C8.12 31.266 5.56133 30.5313 3.56 29.062C1.55867 27.5673 0.482 25.4393 0.33 22.678H8.272C8.348 23.6153 8.62667 24.2993 9.108 24.73C9.58933 25.1607 10.21 25.376 10.97 25.376C11.654 25.376 12.2113 25.2113 12.642 24.882C13.098 24.5273 13.326 24.046 13.326 23.438C13.326 22.6527 12.9587 22.0447 12.224 21.614C11.4893 21.1833 10.2987 20.702 8.652 20.17C6.904 19.5873 5.48533 19.03 4.396 18.498C3.332 17.9407 2.39467 17.1427 1.584 16.104C0.798667 15.04 0.406 13.6593 0.406 11.962C0.406 10.2393 0.836667 8.77 1.698 7.554C2.55933 6.31267 3.75 5.37533 5.27 4.742C6.79 4.10867 8.51267 3.792 10.438 3.792C13.554 3.792 16.0367 4.52667 17.886 5.996C19.7607 7.44 20.7613 9.47933 20.888 12.114H12.794C12.7687 11.3033 12.5153 10.6953 12.034 10.29C11.578 9.88467 10.9827 9.682 10.248 9.682C9.69067 9.682 9.23467 9.84666 8.88 10.176C8.52533 10.5053 8.348 10.974 8.348 11.582C8.348 12.0887 8.538 12.532 8.918 12.912C9.32333 13.2667 9.81733 13.5833 10.4 13.862C10.9827 14.1153 11.844 14.4447 12.984 14.85C14.6813 15.4327 16.0747 16.0153 17.164 16.598C18.2787 17.1553 19.2287 17.9533 20.014 18.992C20.8247 20.0053 21.23 21.2973 21.23 22.868C21.23 24.464 20.8247 25.8953 20.014 27.162C19.2287 28.4287 18.076 29.4293 16.556 30.164C15.0613 30.8987 13.288 31.266 11.236 31.266ZM32.1405 2.88V31H24.6925V2.88H32.1405ZM40.1439 7.706C38.8266 7.706 37.7626 7.35133 36.9519 6.642C36.1666 5.90733 35.7739 4.99533 35.7739 3.906C35.7739 2.79133 36.1666 1.86667 36.9519 1.132C37.7626 0.397332 38.8266 0.0299978 40.1439 0.0299978C41.4359 0.0299978 42.4746 0.397332 43.2599 1.132C44.0706 1.86667 44.4759 2.79133 44.4759 3.906C44.4759 4.99533 44.0706 5.90733 43.2599 6.642C42.4746 7.35133 41.4359 7.706 40.1439 7.706ZM43.8299 9.682V31H36.3819V9.682H43.8299ZM46.8554 20.322C46.8554 18.118 47.3114 16.1927 48.2234 14.546C49.1354 12.8993 50.402 11.6327 52.0234 10.746C53.67 9.85933 55.5447 9.416 57.6474 9.416C60.358 9.416 62.638 10.1633 64.4874 11.658C66.3367 13.1273 67.5274 15.192 68.0594 17.852H60.1554C59.6994 16.4587 58.8127 15.762 57.4954 15.762C56.558 15.762 55.8107 16.1547 55.2534 16.94C54.7214 17.7 54.4554 18.8273 54.4554 20.322C54.4554 21.8167 54.7214 22.9567 55.2534 23.742C55.8107 24.5273 56.558 24.92 57.4954 24.92C58.838 24.92 59.7247 24.2233 60.1554 22.83H68.0594C67.5274 25.4647 66.3367 27.5293 64.4874 29.024C62.638 30.5187 60.358 31.266 57.6474 31.266C55.5447 31.266 53.67 30.8227 52.0234 29.936C50.402 29.0493 49.1354 27.7827 48.2234 26.136C47.3114 24.4893 46.8554 22.5513 46.8554 20.322ZM84.4914 31L78.6014 22.26V31H71.1534V2.88H78.6014V18.042L84.4914 9.682H93.4214L85.0234 20.398L93.5734 31H84.4914Z" fill="black"/>
</svg>
